<?xml version="1.0" ?>
<svg xmlns="http://www.w3.org/2000/svg" width="1000" height="600">
	<circle cx="150" cy="150" r="20" stroke="black" fill="white"/>
	<text x="150" y="155" font-size="12" text-anchor="middle" fill="black">TL_01</text>
	<circle cx="300" cy="120" r="20" stroke="black" fill="white"/>
	<text x="300" y="125" font-size="12" text-anchor="middle" fill="black">TL_02</text>
	<circle cx="250" cy="250" r="20" stroke="black" fill="white"/>
	<text x="250" y="255" font-size="12" text-anchor="middle" fill="black">TL_03</text>
	<circle cx="600" cy="120" r="20" stroke="black" fill="white"/>
	<text x="600" y="125" font-size="12" text-anchor="middle" fill="black">SP_01</text>
	<circle cx="750" cy="120" r="20" stroke="black" fill="white"/>
	<text x="750" y="125" font-size="12" text-anchor="middle" fill="black">SP_03</text>
	<circle cx="150" cy="450" r="20" stroke="black" fill="white"/>
	<text x="150" y="455" font-size="12" text-anchor="middle" fill="black">RH_01</text>
	<circle cx="300" cy="450" r="20" stroke="black" fill="white"/>
	<text x="300" y="455" font-size="12" text-anchor="middle" fill="black">RH_02</text>
	<circle cx="450" cy="450" r="20" stroke="black" fill="white"/>
	<text x="450" y="455" font-size="12" text-anchor="middle" fill="black">RH_03</text>
	<circle cx="675" cy="250" r="20" stroke="black" fill="white"/>
	<text x="675" y="255" font-size="12" text-anchor="middle" fill="black">RH_03s</text>
	<circle cx="600" cy="250" r="20" stroke="black" fill="white"/>
	<text x="600" y="255" font-size="12" text-anchor="middle" fill="black">SP_02</text>
	<line x1="150" y1="150" x2="450" y2="450" stroke="purple" stroke-width="2"/>
	<line x1="150" y1="450" x2="300" y2="450" stroke="pink" stroke-width="2"/>
	<line x1="600" y1="120" x2="750" y2="120" stroke="red" stroke-width="2"/>
	<line x1="600" y1="250" x2="250" y2="250" stroke="orange" stroke-width="2"/>
	<line x1="450" y1="450" x2="750" y2="120" stroke="teal" stroke-width="2"/>
	<line x1="300" y1="120" x2="600" y2="120" stroke="green" stroke-width="2"/>
	<line x1="300" y1="450" x2="150" y2="150" stroke="blueviolet" stroke-width="2"/>
	<line x1="750" y1="120" x2="150" y2="450" stroke="violet" stroke-width="2"/>
	<line x1="250" y1="250" x2="450" y2="450" stroke="deepskyblue" stroke-width="2"/>
	<line x1="600" y1="250" x2="600" y2="120" stroke="gold" stroke-width="2"/>
</svg>
